<?xml version="1.0" encoding="utf-8"?>
<!-- Generator: Adobe Illustrator 24.0.1, SVG Export Plug-In . SVG Version: 6.00 Build 0)  -->
<svg version="1.1" xmlns="http://www.w3.org/2000/svg" xmlns:xlink="http://www.w3.org/1999/xlink" x="0px" y="0px"
	 viewBox="0 0 28.26 28.26" style="enable-background:new 0 0 28.26 28.26;" xml:space="preserve">
<style type="text/css">
	.st0{fill:#EA2429;}
	.st1{fill:#26BFD1;}
	.st2{fill:#FFCD03;}
	.st3{fill:#2377BC;}
	.st4{fill:#F1F2BC;}
	.st5{fill:#ED2557;}
	.st6{fill:#F89E23;}
	.st7{fill:#67BD61;}
	.st8{fill:#FFFFFF;}
	.st9{fill:none;stroke:#FFFFFF;stroke-width:9;stroke-linecap:round;stroke-linejoin:round;stroke-miterlimit:10;}
	.st10{fill:#FB6554;}
	.st11{opacity:0.5;}
	.st12{opacity:0.5;fill:#FFFFFF;}
	.st13{fill:#FCC7C3;}
	.st14{opacity:0.9;}
	.st15{fill:#9CD7FC;}
	.st16{fill:#FD6553;}
	.st17{fill:#017CF4;}
	.st18{fill:#F8B215;}
	.st19{fill:#007CF4;}
	.st20{fill:#FCA398;}
	.st21{fill:#F1F1F1;}
	.st22{fill:#D2D2D2;}
	.st23{fill:#F4BE53;}
	.st24{fill:#9CD8FD;}
	.st25{fill:#EFC36C;}
	.st26{fill:#B7DBF9;}
	.st27{fill:#F4D9A4;}
	.st28{opacity:0.25;fill:#FFFFFF;}
	.st29{fill:#BBBBBC;}
	.st30{fill:none;stroke:#FFFFFF;stroke-width:5;stroke-miterlimit:10;}
	.st31{fill:none;stroke:#FFFFFF;stroke-width:5;stroke-linecap:round;stroke-linejoin:round;stroke-miterlimit:10;}
	.st32{fill:none;stroke:#FFFFFF;stroke-width:6;stroke-linecap:round;stroke-linejoin:round;stroke-miterlimit:10;}
	.st33{fill:#ED4A59;}
	.st34{display:none;fill:#017CF4;}
</style>
<g id="Layer_1">
</g>
<g id="Layer_2">
	<g>
		<g>
			<polygon class="st8" points="4.02,6.43 2.44,5.29 2.44,22.97 4.02,22.97 			"/>
			<polygon class="st8" points="7.18,8.73 5.6,7.58 5.6,22.97 7.18,22.97 			"/>
			<polygon class="st8" points="10.34,11.03 8.76,9.88 8.76,22.97 10.34,22.97 			"/>
			<polygon class="st8" points="13.51,13.33 11.93,12.18 11.93,22.97 13.51,22.97 			"/>
		</g>
		<g>
			<polygon class="st8" points="25.41,5.59 23.35,7.17 25.81,7.17 25.81,5.59 			"/>
			<polygon class="st8" points="21.28,8.76 19.22,10.34 25.81,10.34 25.81,8.76 			"/>
			<polygon class="st8" points="17.15,11.92 15.09,13.5 25.81,13.5 25.81,11.92 			"/>
			<rect x="14.75" y="15.09" class="st8" width="11.06" height="1.58"/>
			<rect x="14.75" y="18.25" class="st8" width="11.06" height="1.58"/>
			<rect x="14.75" y="21.41" class="st8" width="11.06" height="1.56"/>
		</g>
	</g>
</g>
<g id="Layer_3">
</g>
<g id="Layer_4">
</g>
<g id="Layer_5">
</g>
</svg>
